<?xml version="1.0" standalone="no"?>
<!DOCTYPE svg PUBLIC "-//W3C//DTD SVG 20010904//EN"
 "http://www.w3.org/TR/2001/REC-SVG-20010904/DTD/svg10.dtd">
<svg version="1.0" xmlns="http://www.w3.org/2000/svg"
 width="512.000000pt" height="512.000000pt" viewBox="0 0 512.000000 512.000000"
 preserveAspectRatio="xMidYMid meet">
<metadata>
Created by potrace 1.11, written by Peter Selinger 2001-2013
</metadata>
<g transform="translate(0.000000,512.000000) scale(0.100000,-0.100000)"
fill="#000000" stroke="none">
<path d="M433 3083 c-4 -9 -2 -18 4 -20 5 -2 18 -10 28 -17 17 -12 17 -16 2
-62 -9 -27 -28 -98 -42 -159 -14 -60 -43 -186 -65 -280 -62 -259 -101 -457
-94 -477 3 -10 17 -21 32 -25 15 -5 149 -8 299 -7 331 0 314 -7 348 154 17 81
6 97 -35 52 -26 -29 -34 -32 -86 -32 -87 0 -177 19 -208 43 -19 16 -29 35 -33
64 -18 138 75 223 243 223 102 0 128 21 141 116 l6 44 -84 0 c-67 0 -91 4
-119 21 -47 28 -60 47 -60 85 0 75 71 112 236 122 l109 7 17 35 c9 19 20 56
23 83 l7 47 -331 0 c-302 0 -332 -2 -338 -17z"/>
<path d="M1233 3084 c-4 -11 2 -23 18 -35 23 -17 23 -18 7 -66 -9 -26 -26 -91
-37 -143 -20 -96 -118 -498 -146 -598 -20 -74 -23 -181 -6 -192 23 -14 264
-23 420 -15 191 9 187 6 214 153 13 67 13 72 -3 72 -10 0 -24 -10 -33 -22 -13
-21 -22 -23 -98 -22 -100 1 -150 20 -179 66 -30 46 -23 103 43 378 29 124 62
267 72 319 24 122 25 121 -142 121 -105 0 -125 -2 -130 -16z"/>
<path d="M2141 2890 c-194 -27 -261 -125 -346 -509 -36 -162 -34 -188 15 -250
22 -28 52 -57 68 -65 54 -28 146 -40 283 -39 140 2 190 13 231 50 21 19 53
100 63 161 6 36 4 42 -10 42 -9 0 -26 -11 -37 -25 -26 -33 -88 -48 -174 -42
-136 10 -196 74 -148 157 33 55 64 64 237 70 l158 5 34 38 c41 46 48 78 44
196 -3 72 -8 95 -25 118 -27 37 -78 71 -123 82 -56 15 -200 20 -270 11z"/>
<path d="M4545 2884 c-82 -25 -112 -28 -149 -10 -50 23 -254 23 -263 0 -4 -10
1 -22 12 -30 16 -12 16 -14 -4 -40 -17 -21 -21 -41 -21 -98 -1 -71 -5 -96 -74
-421 -39 -184 -42 -215 -24 -233 18 -18 254 -17 261 2 3 8 -5 18 -20 25 -19 9
-24 17 -20 34 59 241 109 431 125 468 43 100 121 138 172 84 37 -39 37 -107 1
-257 -46 -192 -67 -325 -55 -346 9 -14 31 -17 138 -20 121 -2 126 -2 126 18 0
11 -6 20 -14 20 -26 0 -37 25 -26 56 15 37 86 334 121 504 27 130 27 136 11
170 -35 72 -185 109 -297 74z"/>
<path d="M2810 2865 c-13 -34 -13 -91 0 -116 7 -12 26 -21 51 -25 30 -5 44
-13 52 -32 10 -21 8 -27 -15 -47 -15 -13 -56 -33 -91 -44 -91 -31 -189 -113
-206 -172 -34 -127 -28 -268 16 -326 46 -62 64 -68 196 -66 67 1 200 2 295 1
169 0 172 0 172 21 0 12 -6 21 -14 21 -26 0 -28 20 -7 63 34 72 113 430 118
537 5 113 -10 152 -73 184 -35 19 -60 21 -261 24 l-223 3 -10 -26z m190 -465
c32 -32 27 -94 -9 -131 -36 -36 -69 -37 -106 -3 -24 22 -27 31 -22 67 10 75
90 114 137 67z"/>
<path d="M3513 2874 c-4 -11 2 -23 20 -36 25 -18 25 -20 11 -54 -8 -20 -42
-145 -75 -279 -62 -254 -83 -421 -58 -451 17 -20 259 -20 259 0 0 7 -10 20
-22 28 -22 15 -22 15 -5 74 10 32 31 118 47 189 54 233 89 303 171 345 21 11
56 20 78 20 84 0 111 29 126 134 l8 49 -94 -8 c-107 -8 -142 -8 -327 1 -119 5
-133 4 -139 -12z"/>
</g>
</svg>
