<?xml version="1.0" standalone="no"?>
<!DOCTYPE svg PUBLIC "-//W3C//DTD SVG 20010904//EN"
 "http://www.w3.org/TR/2001/REC-SVG-20010904/DTD/svg10.dtd">
<svg version="1.0" xmlns="http://www.w3.org/2000/svg"
 width="512.000000pt" height="512.000000pt" viewBox="0 0 512.000000 512.000000"
 preserveAspectRatio="xMidYMid meet">
<metadata>
Created by potrace 1.11, written by Peter Selinger 2001-2013
</metadata>
<g transform="translate(0.000000,512.000000) scale(0.100000,-0.100000)"
fill="#000000" stroke="none">
<path d="M1104 4621 c-21 -4 -63 -45 -65 -64 -6 -60 -3 -388 4 -409 4 -14 17
-34 29 -45 19 -17 52 -18 607 -20 322 -1 591 -2 597 -2 9 -1 11 -390 10 -1522
l-1 -1522 -596 -1 c-566 -1 -598 -2 -617 -19 -34 -31 -38 -63 -37 -262 1 -200
6 -224 48 -247 17 -9 364 -12 1462 -15 792 -1 1453 1 1469 5 16 5 39 21 50 36
20 26 21 41 21 238 l0 210 -33 29 -32 29 -594 0 -593 0 0 1520 -1 1520 594 0
594 0 32 29 33 29 2 202 c2 163 0 208 -12 231 -33 62 66 59 -1512 56 -792 -1
-1448 -4 -1459 -6z"/>
</g>
</svg>
